<svg version="1.1" xmlns="http://www.w3.org/2000/svg" viewBox="-2202.3090060372638 -1110.0160400390625 9721.413249506502 2476.032098388672"><desc>Created with Snap</desc><defs></defs><g><g transform="matrix(7.9557,0,0,7.9557,-2404.2733,-1200.6007)">
<g>
	<g>
		<path fill-rule="evenodd" clip-rule="evenodd" d="M64,206h113v-63h39v63h39c-26,26-52,52-78,78v-39H64V206z" fill="#e94b3c" style=""></path>
		<path fill-rule="evenodd" clip-rule="evenodd" d="M269,127H156v63h-38v-63H78c27-26,52-51,78-77v39h113V127z" fill="#e94b3c" style=""></path>
	</g>
</g>
<desc>Created with Snap</desc><defs></defs></g><g><g transform="matrix(1.024,0,0,-1.024,0,0)"><path d="M829 708L829 688Q795 687 777 680Q760 674 754 656Q748 639 748 602L748 106Q748 70 754 52Q760 34 777 28Q795 22 829 20L829 0Q806 2 771 2Q737 3 702 3Q663 3 629 2Q595 2 574 0L574 20Q608 22 625 28Q643 34 649 52Q655 70 655 106L655 656L659 653L414 -5L398 -5L146 644L146 116Q146 80 152 59Q159 39 178 30Q198 22 237 20L237 0Q219 2 190 2Q161 3 135 3Q110 3 84 2Q59 2 42 0L42 20Q76 22 93 30Q111 39 117 59Q123 80 123 116L123 602Q123 639 117 656Q111 674 93 680Q76 687 42 688L42 708Q59 707 84 706Q110 705 135 705Q157 705 180 706Q204 707 220 708L447 110L430 102L655 705Q667 705 678 705Q690 705 702 705Q737 705 771 706Q806 707 829 708ZM1034 -7Q969 -7 939 25Q910 58 910 112Q910 154 930 181Q951 209 983 226Q1015 244 1050 256Q1086 269 1118 281Q1150 293 1170 308Q1191 323 1191 346L1191 408Q1191 450 1178 472Q1166 494 1145 501Q1124 509 1098 509Q1073 509 1044 502Q1016 495 999 473Q1018 469 1032 453Q1046 437 1046 412Q1046 387 1030 372Q1014 358 989 358Q960 358 946 376Q933 395 933 418Q933 444 946 460Q959 476 979 490Q1002 506 1038 517Q1075 529 1121 529Q1162 529 1191 519Q1220 510 1239 492Q1265 468 1273 433Q1281 399 1281 351L1281 73Q1281 49 1288 37Q1295 26 1312 26Q1326 26 1336 32Q1347 38 1357 47L1368 30Q1347 14 1328 3Q1309 -7 1277 -7Q1225 -7 1208 20Q1191 47 1191 82Q1159 29 1118 11Q1078 -7 1034 -7ZM1078 33Q1108 33 1137 50Q1166 68 1191 109L1191 305Q1176 283 1144 270Q1113 257 1079 241Q1046 226 1022 199Q998 173 998 124Q998 78 1021 55Q1044 33 1078 33ZM1852 526L1852 108Q1852 63 1868 41Q1885 20 1928 20L1928 -1Q1897 2 1866 2Q1837 2 1810 -1Q1784 -4 1762 -12L1762 106Q1737 41 1691 13Q1646 -14 1598 -14Q1563 -14 1537 -4Q1511 6 1494 24Q1475 44 1468 76Q1461 108 1461 155L1461 406Q1461 451 1445 472Q1429 494 1385 494L1385 515Q1417 512 1447 512Q1476 512 1502 515Q1529 519 1551 526L1551 133Q1551 102 1555 76Q1559 50 1575 34Q1591 18 1627 18Q1686 18 1724 70Q1762 123 1762 199L1762 406Q1762 451 1746 472Q1730 494 1686 494L1686 515Q1718 512 1748 512Q1777 512 1803 515Q1830 519 1852 526ZM2113 -7Q2048 -7 2018 25Q1989 58 1989 112Q1989 154 2009 181Q2030 209 2062 226Q2094 244 2129 256Q2165 269 2197 281Q2229 293 2249 308Q2270 323 2270 346L2270 408Q2270 450 2257 472Q2245 494 2224 501Q2203 509 2177 509Q2152 509 2123 502Q2095 495 2078 473Q2097 469 2111 453Q2125 437 2125 412Q2125 387 2109 372Q2093 358 2068 358Q2039 358 2025 376Q2012 395 2012 418Q2012 444 2025 460Q2038 476 2058 490Q2081 506 2117 517Q2154 529 2200 529Q2241 529 2270 519Q2299 510 2318 492Q2344 468 2352 433Q2360 399 2360 351L2360 73Q2360 49 2367 37Q2374 26 2391 26Q2405 26 2415 32Q2426 38 2436 47L2447 30Q2426 14 2407 3Q2388 -7 2356 -7Q2304 -7 2287 20Q2270 47 2270 82Q2238 29 2197 11Q2157 -7 2113 -7ZM2157 33Q2187 33 2216 50Q2245 68 2270 109L2270 305Q2255 283 2223 270Q2192 257 2158 241Q2125 226 2101 199Q2077 173 2077 124Q2077 78 2100 55Q2123 33 2157 33ZM3020 713L3264 84Q3279 46 3298 33Q3317 21 3333 20L3333 0Q3313 2 3284 2Q3255 3 3226 3Q3187 3 3153 2Q3119 2 3098 0L3098 20Q3149 22 3163 37Q3177 53 3157 104L2971 601L2987 614L2813 162Q2792 108 2793 77Q2794 47 2816 34Q2838 21 2880 20L2880 0Q2852 2 2821 2Q2791 3 2765 3Q2740 3 2722 2Q2705 2 2690 0L2690 20Q2710 25 2731 43Q2752 62 2769 107L3004 713Q3008 713 3012 713Q3016 713 3020 713ZM2854 288L3142 288L3142 268L2844 268L2854 288ZM3606 529Q3638 529 3668 521Q3698 513 3722 497Q3745 482 3757 462Q3769 443 3769 420Q3769 393 3754 378Q3739 364 3716 364Q3694 364 3677 377Q3661 390 3661 414Q3661 437 3673 451Q3686 465 3703 469Q3693 487 3667 499Q3642 511 3613 511Q3588 511 3563 499Q3538 487 3517 459Q3496 432 3483 384Q3470 337 3470 266Q3470 178 3490 126Q3510 74 3542 51Q3575 29 3614 29Q3653 29 3693 52Q3733 75 3759 132L3778 125Q3768 93 3745 60Q3722 28 3685 7Q3648 -14 3594 -14Q3532 -14 3482 18Q3432 50 3402 109Q3373 169 3373 251Q3373 333 3402 395Q3432 458 3485 493Q3538 529 3606 529ZM3976 -7Q3911 -7 3881 25Q3852 58 3852 112Q3852 154 3872 181Q3893 209 3925 226Q3957 244 3992 256Q4028 269 4060 281Q4092 293 4112 308Q4133 323 4133 346L4133 408Q4133 450 4120 472Q4108 494 4087 501Q4066 509 4040 509Q4015 509 3986 502Q3958 495 3941 473Q3960 469 3974 453Q3988 437 3988 412Q3988 387 3972 372Q3956 358 3931 358Q3902 358 3888 376Q3875 395 3875 418Q3875 444 3888 460Q3901 476 3921 490Q3944 506 3980 517Q4017 529 4063 529Q4104 529 4133 519Q4162 510 4181 492Q4207 468 4215 433Q4223 399 4223 351L4223 73Q4223 49 4230 37Q4237 26 4254 26Q4268 26 4278 32Q4289 38 4299 47L4310 30Q4289 14 4270 3Q4251 -7 4219 -7Q4167 -7 4150 20Q4133 47 4133 82Q4101 29 4060 11Q4020 -7 3976 -7ZM4020 33Q4050 33 4079 50Q4108 68 4133 109L4133 305Q4118 283 4086 270Q4055 257 4021 241Q3988 226 3964 199Q3940 173 3940 124Q3940 78 3963 55Q3986 33 4020 33ZM4795 784L4795 109Q4795 64 4811 42Q4828 21 4871 21L4871 0Q4840 3 4809 3Q4780 3 4753 0Q4727 -3 4705 -11L4705 664Q4705 709 4689 730Q4673 752 4629 752L4629 773Q4661 770 4691 770Q4720 770 4746 773Q4773 777 4795 784ZM4585 529Q4629 529 4667 508Q4706 487 4719 436L4706 426Q4692 468 4662 487Q4633 506 4593 506Q4534 506 4494 445Q4455 384 4456 257Q4456 176 4471 122Q4487 69 4517 42Q4548 16 4592 16Q4634 16 4668 52Q4702 88 4709 158L4721 144Q4713 68 4672 27Q4632 -14 4563 -14Q4501 -14 4454 16Q4408 46 4383 106Q4359 166 4359 257Q4359 348 4390 408Q4422 469 4473 499Q4525 529 4585 529ZM5164 529Q5252 529 5301 475Q5351 422 5351 309L4998 309L4997 328L5255 328Q5257 377 5247 418Q5237 460 5215 485Q5194 510 5160 510Q5114 510 5078 464Q5043 418 5036 318L5039 314Q5037 299 5036 281Q5035 263 5035 245Q5035 177 5057 128Q5079 79 5114 53Q5150 28 5188 28Q5233 28 5271 50Q5309 72 5335 128L5355 120Q5344 87 5319 56Q5294 25 5256 5Q5218 -14 5168 -14Q5096 -14 5044 19Q4993 52 4965 110Q4938 169 4938 245Q4938 333 4966 396Q4994 460 5045 494Q5096 529 5164 529ZM5757 529Q5792 529 5818 519Q5844 509 5861 491Q5880 471 5887 439Q5894 407 5894 360L5894 93Q5894 51 5911 36Q5929 21 5970 21L5970 0Q5953 1 5918 2Q5883 4 5850 4Q5817 4 5785 2Q5754 1 5738 0L5738 21Q5774 21 5789 36Q5804 51 5804 93L5804 382Q5804 413 5800 439Q5796 465 5780 481Q5764 497 5728 497Q5689 497 5658 473Q5628 449 5610 407Q5593 366 5593 315L5593 93Q5593 51 5608 36Q5623 21 5659 21L5659 0Q5643 1 5611 2Q5580 4 5547 4Q5514 4 5479 2Q5444 1 5427 0L5427 21Q5468 21 5485 36Q5503 51 5503 93L5503 406Q5503 451 5487 472Q5471 494 5427 494L5427 515Q5459 512 5489 512Q5518 512 5544 515Q5571 519 5593 526L5593 408Q5619 473 5664 501Q5709 529 5757 529ZM6058 529Q6093 529 6119 519Q6145 509 6162 491Q6181 471 6188 439Q6195 407 6195 360L6195 93Q6195 51 6212 36Q6230 21 6271 21L6271 0Q6254 1 6219 2Q6184 4 6151 4Q6118 4 6086 2Q6055 1 6039 0L6039 21Q6075 21 6090 36Q6105 51 6105 93L6105 382Q6105 413 6101 439Q6097 465 6081 481Q6065 497 6029 497Q5971 497 5932 445Q5894 393 5894 316L5891 409Q5918 478 5964 503Q6010 529 6058 529ZM6780 515L6780 495Q6761 493 6745 478Q6729 463 6715 425L6551 -5L6534 -5L6350 438Q6331 477 6312 485Q6294 494 6282 494L6282 515Q6304 512 6328 510Q6352 509 6380 509Q6411 509 6445 511Q6480 513 6510 515L6510 494Q6485 494 6465 490Q6446 487 6441 469Q6436 452 6453 410L6576 105L6570 103L6684 401Q6703 451 6688 471Q6673 491 6620 495L6620 515Q6646 514 6663 513Q6681 512 6704 512Q6727 512 6745 513Q6764 514 6780 515ZM6532 3L6551 -5L6517 -92Q6498 -141 6474 -162Q6458 -177 6436 -183Q6414 -188 6396 -188Q6377 -188 6361 -181Q6346 -174 6337 -161Q6328 -147 6328 -128Q6328 -104 6342 -90Q6356 -75 6381 -75Q6402 -75 6417 -87Q6432 -99 6432 -122Q6432 -139 6424 -150Q6416 -161 6405 -167Q6407 -168 6408 -168Q6410 -168 6411 -168Q6438 -168 6459 -150Q6480 -131 6496 -90L6532 3Z" fill="#2d2926" style=""></path></g></g><g transform="matrix(0.75,0,0,0.75,-3.072,1051.1361)"><g transform="matrix(1.024,0,0,-1.024,0,0)"><path d="M342 -10Q253 -10 191 23Q130 56 97 116Q65 176 61 257Q60 301 60 350Q60 400 61 445Q65 526 97 585Q130 645 192 677Q254 710 342 710Q412 710 464 690Q516 670 549 639Q583 609 599 576Q616 543 617 518Q618 509 612 503Q606 498 596 498L537 498Q527 498 522 502Q518 506 514 516Q505 542 484 567Q464 592 429 608Q395 625 342 625Q262 625 213 582Q165 539 161 440Q158 351 161 262Q165 162 214 118Q263 75 342 75Q395 75 436 95Q478 115 502 155Q526 196 526 259L526 301L376 301Q366 301 359 307Q353 314 353 325L353 357Q353 368 359 374Q366 381 376 381L602 381Q613 381 619 374Q625 368 625 357L625 261Q625 179 591 118Q558 57 494 23Q430 -10 342 -10ZM826 0L779 0Q769 0 762 6Q756 13 756 23L756 687Q756 697 762 703Q769 710 779 710L826 710Q837 710 843 703Q849 697 849 687L849 23Q849 13 843 6Q837 0 826 0ZM1211 -10Q1135 -10 1084 19Q1033 48 1006 99Q979 151 976 217Q975 234 975 260Q975 287 976 303Q979 370 1006 421Q1034 472 1085 501Q1136 530 1211 530Q1286 530 1337 501Q1388 472 1415 421Q1443 370 1446 303Q1447 287 1447 260Q1447 234 1446 217Q1443 151 1416 99Q1389 48 1338 19Q1287 -10 1211 -10ZM1211 67Q1273 67 1310 106Q1347 146 1350 222Q1351 237 1351 260Q1351 283 1350 298Q1347 374 1310 413Q1273 453 1211 453Q1149 453 1111 413Q1074 374 1072 298Q1071 283 1071 260Q1071 237 1072 222Q1074 146 1111 106Q1149 67 1211 67ZM1829 -10Q1769 -10 1729 11Q1689 33 1665 65L1665 23Q1665 13 1658 6Q1652 0 1642 0L1596 0Q1586 0 1579 6Q1573 13 1573 23L1573 687Q1573 697 1579 703Q1586 710 1596 710L1645 710Q1655 710 1661 703Q1667 697 1667 687L1667 457Q1692 488 1731 509Q1771 530 1829 530Q1885 530 1924 510Q1964 491 1989 457Q2015 423 2028 380Q2041 337 2043 290Q2044 274 2044 260Q2044 246 2043 230Q2041 182 2028 139Q2015 96 1989 62Q1964 29 1924 9Q1885 -10 1829 -10ZM1808 71Q1860 71 1889 93Q1919 116 1932 152Q1945 189 1947 231Q1948 260 1947 289Q1945 331 1932 367Q1919 404 1889 426Q1860 449 1808 449Q1761 449 1730 427Q1699 405 1683 371Q1668 337 1667 302Q1666 286 1666 263Q1666 241 1667 225Q1669 188 1683 152Q1698 117 1728 94Q1759 71 1808 71ZM2312 -10Q2262 -10 2221 10Q2180 30 2155 64Q2130 98 2130 141Q2130 210 2186 251Q2242 292 2332 305L2481 326L2481 355Q2481 403 2453 430Q2426 457 2364 457Q2331 457 2308 447Q2286 437 2272 423Q2258 409 2250 395Q2246 386 2241 382Q2237 378 2230 378L2187 378Q2178 378 2171 384Q2165 391 2165 400Q2165 415 2176 437Q2188 459 2212 480Q2236 501 2273 515Q2311 530 2365 530Q2425 530 2466 514Q2507 499 2530 473Q2554 447 2564 414Q2575 381 2575 347L2575 23Q2575 13 2568 6Q2562 0 2552 0L2506 0Q2495 0 2489 6Q2483 13 2483 23L2483 66Q2470 48 2448 30Q2426 13 2393 1Q2360 -10 2312 -10ZM2333 65Q2374 65 2408 82Q2442 100 2461 137Q2481 174 2481 230L2481 258L2365 241Q2294 231 2258 207Q2222 184 2222 148Q2222 120 2238 101Q2255 83 2280 74Q2306 65 2333 65ZM2790 0L2743 0Q2733 0 2726 6Q2720 13 2720 23L2720 687Q2720 697 2726 703Q2733 710 2743 710L2790 710Q2801 710 2807 703Q2813 697 2813 687L2813 23Q2813 13 2807 6Q2801 0 2790 0ZM3445 -10Q3358 -10 3299 17Q3240 44 3208 86Q3177 129 3175 176Q3175 184 3181 190Q3188 197 3197 197L3248 197Q3260 197 3266 191Q3272 185 3274 177Q3280 153 3299 129Q3318 106 3353 90Q3389 75 3445 75Q3531 75 3571 105Q3612 136 3612 187Q3612 222 3590 243Q3569 265 3525 282Q3481 299 3411 319Q3338 340 3290 365Q3242 390 3218 427Q3195 464 3195 521Q3195 575 3224 617Q3253 660 3308 685Q3363 710 3440 710Q3502 710 3548 693Q3595 677 3626 649Q3657 622 3673 590Q3689 559 3690 529Q3690 522 3685 515Q3680 509 3669 509L3616 509Q3609 509 3601 513Q3594 517 3590 528Q3584 569 3544 597Q3504 625 3440 625Q3375 625 3334 600Q3294 575 3294 522Q3294 488 3313 465Q3332 443 3373 426Q3414 409 3480 390Q3560 368 3611 343Q3662 319 3686 282Q3711 246 3711 189Q3711 126 3678 81Q3645 37 3585 13Q3526 -10 3445 -10ZM4023 -10Q3959 -10 3914 18Q3870 47 3847 98Q3824 149 3824 215L3824 497Q3824 507 3830 513Q3837 520 3847 520L3897 520Q3907 520 3913 513Q3920 507 3920 497L3920 220Q3920 71 4050 71Q4112 71 4149 110Q4187 150 4187 220L4187 497Q4187 507 4193 513Q4200 520 4210 520L4260 520Q4270 520 4276 513Q4282 507 4282 497L4282 23Q4282 13 4276 6Q4270 0 4260 0L4213 0Q4203 0 4196 6Q4190 13 4190 23L4190 67Q4163 32 4124 11Q4086 -10 4023 -10ZM4502 0L4454 0Q4444 0 4437 6Q4431 13 4431 23L4431 497Q4431 507 4437 513Q4444 520 4454 520L4499 520Q4509 520 4515 513Q4522 507 4522 497L4522 462Q4545 493 4580 511Q4615 530 4664 530Q4777 531 4824 438Q4847 480 4891 505Q4935 530 4991 530Q5043 530 5085 506Q5128 482 5152 433Q5177 385 5177 312L5177 23Q5177 13 5170 6Q5164 0 5154 0L5107 0Q5097 0 5090 6Q5084 13 5084 23L5084 303Q5084 359 5068 391Q5052 423 5025 436Q4998 449 4966 449Q4940 449 4913 436Q4886 423 4868 391Q4851 359 4851 303L4851 23Q4851 13 4844 6Q4838 0 4828 0L4781 0Q4771 0 4764 6Q4758 13 4758 23L4758 303Q4758 359 4741 391Q4724 423 4697 436Q4670 449 4640 449Q4614 449 4587 436Q4560 423 4542 391Q4525 359 4525 304L4525 23Q4525 13 4518 6Q4512 0 4502 0ZM5391 0L5343 0Q5333 0 5326 6Q5320 13 5320 23L5320 497Q5320 507 5326 513Q5333 520 5343 520L5388 520Q5398 520 5404 513Q5411 507 5411 497L5411 462Q5434 493 5469 511Q5504 530 5553 530Q5666 531 5713 438Q5736 480 5780 505Q5824 530 5880 530Q5932 530 5974 506Q6017 482 6041 433Q6066 385 6066 312L6066 23Q6066 13 6059 6Q6053 0 6043 0L5996 0Q5986 0 5979 6Q5973 13 5973 23L5973 303Q5973 359 5957 391Q5941 423 5914 436Q5887 449 5855 449Q5829 449 5802 436Q5775 423 5757 391Q5740 359 5740 303L5740 23Q5740 13 5733 6Q5727 0 5717 0L5670 0Q5660 0 5653 6Q5647 13 5647 23L5647 303Q5647 359 5630 391Q5613 423 5586 436Q5559 449 5529 449Q5503 449 5476 436Q5449 423 5431 391Q5414 359 5414 304L5414 23Q5414 13 5407 6Q5401 0 5391 0ZM6280 0L6232 0Q6222 0 6215 6Q6209 13 6209 23L6209 497Q6209 507 6215 513Q6222 520 6232 520L6280 520Q6290 520 6296 513Q6303 507 6303 497L6303 23Q6303 13 6296 6Q6290 0 6280 0ZM6287 617L6224 617Q6214 617 6207 623Q6201 630 6201 640L6201 694Q6201 704 6207 711Q6214 718 6224 718L6287 718Q6297 718 6304 711Q6311 704 6311 694L6311 640Q6311 630 6304 623Q6297 617 6287 617ZM6723 0L6654 0Q6598 0 6563 21Q6528 43 6512 82Q6496 122 6496 176L6496 440L6418 440Q6408 440 6401 446Q6395 453 6395 463L6395 497Q6395 507 6401 513Q6408 520 6418 520L6496 520L6496 687Q6496 697 6502 703Q6509 710 6519 710L6566 710Q6576 710 6582 703Q6589 697 6589 687L6589 520L6713 520Q6724 520 6730 513Q6736 507 6736 497L6736 463Q6736 453 6730 446Q6724 440 6713 440L6589 440L6589 183Q6589 136 6605 109Q6621 82 6662 82L6723 82Q6733 82 6739 75Q6746 69 6746 59L6746 23Q6746 13 6739 6Q6733 0 6723 0ZM7526 0L7085 0Q7075 0 7068 6Q7062 13 7062 23L7062 55Q7062 64 7067 75Q7072 86 7087 99L7299 311Q7350 354 7379 384Q7409 415 7421 443Q7434 471 7434 501Q7434 558 7402 591Q7370 625 7307 625Q7267 625 7238 608Q7209 592 7193 563Q7177 535 7171 499Q7169 486 7160 481Q7152 476 7145 476L7093 476Q7084 476 7078 481Q7072 487 7072 495Q7073 533 7088 571Q7103 610 7132 641Q7162 673 7205 692Q7249 711 7307 711Q7386 711 7436 682Q7487 654 7511 607Q7535 560 7535 504Q7535 460 7520 423Q7505 387 7476 352Q7448 318 7406 282L7214 87L7526 87Q7537 87 7543 81Q7550 75 7550 64L7550 23Q7550 13 7543 6Q7537 0 7526 0ZM7917 -10Q7848 -10 7800 11Q7753 33 7723 71Q7693 109 7679 158Q7666 207 7664 262Q7663 289 7662 319Q7662 349 7662 380Q7663 411 7664 439Q7665 494 7679 543Q7694 592 7724 629Q7754 667 7801 688Q7849 710 7917 710Q7986 710 8033 688Q8081 667 8111 629Q8141 592 8155 543Q8170 494 8171 439Q8172 411 8172 380Q8173 349 8172 319Q8172 289 8171 262Q8170 207 8155 158Q8141 109 8111 71Q8082 33 8034 11Q7987 -10 7917 -10ZM7917 76Q7995 76 8032 127Q8070 178 8071 267Q8073 296 8073 323Q8073 351 8073 378Q8073 406 8071 433Q8070 520 8032 572Q7995 625 7917 625Q7840 625 7802 572Q7765 520 7763 433Q7763 406 7762 378Q7762 351 7762 323Q7763 296 7763 267Q7765 178 7803 127Q7841 76 7917 76ZM8748 0L8307 0Q8297 0 8290 6Q8284 13 8284 23L8284 55Q8284 64 8289 75Q8294 86 8309 99L8521 311Q8572 354 8601 384Q8631 415 8643 443Q8656 471 8656 501Q8656 558 8624 591Q8592 625 8529 625Q8489 625 8460 608Q8431 592 8415 563Q8399 535 8393 499Q8391 486 8382 481Q8374 476 8367 476L8315 476Q8306 476 8300 481Q8294 487 8294 495Q8295 533 8310 571Q8325 610 8354 641Q8384 673 8427 692Q8471 711 8529 711Q8608 711 8658 682Q8709 654 8733 607Q8757 560 8757 504Q8757 460 8742 423Q8727 387 8698 352Q8670 318 8628 282L8436 87L8748 87Q8759 87 8765 81Q8772 75 8772 64L8772 23Q8772 13 8765 6Q8759 0 8748 0ZM9139 -10Q9070 -10 9022 11Q8975 33 8945 71Q8915 109 8901 158Q8888 207 8886 262Q8885 289 8884 319Q8884 349 8884 380Q8885 411 8886 439Q8887 494 8901 543Q8916 592 8946 629Q8976 667 9023 688Q9071 710 9139 710Q9208 710 9255 688Q9303 667 9333 629Q9363 592 9377 543Q9392 494 9393 439Q9394 411 9394 380Q9395 349 9394 319Q9394 289 9393 262Q9392 207 9377 158Q9363 109 9333 71Q9304 33 9256 11Q9209 -10 9139 -10ZM9139 76Q9217 76 9254 127Q9292 178 9293 267Q9295 296 9295 323Q9295 351 9295 378Q9295 406 9293 433Q9292 520 9254 572Q9217 625 9139 625Q9062 625 9024 572Q8987 520 8985 433Q8985 406 8984 378Q8984 351 8984 323Q8985 296 8985 267Q8987 178 9025 127Q9063 76 9139 76Z" fill="#2d2926" style=""></path></g></g></g></svg>